<mxfile host="app.diagrams.net" modified="2023-02-26T01:55:22.991Z" agent="5.0 (Windows NT 10.0; Win64; x64) AppleWebKit/537.36 (KHTML, like Gecko) Chrome/110.0.0.0 Safari/537.36" version="20.7.4" etag="wDUdx-Vw6kFOshSpinY8" type="github">
  <diagram id="cv19EKAN5J35LznjWU13" name="Page-1">
    <mxGraphModel dx="1687" dy="889" grid="1" gridSize="10" guides="1" tooltips="1" connect="1" arrows="1" fold="1" page="1" pageScale="1" pageWidth="850" pageHeight="1100" math="0" shadow="0">
      <root>
        <mxCell id="0" />
        <mxCell id="1" parent="0" />
        <mxCell id="nwMQMh3BIlK8uSWyeDDc-1" value="The Navigator" style="shape=umlFrame;whiteSpace=wrap;html=1;width=120;height=30;boundedLbl=1;verticalAlign=middle;align=left;spacingLeft=5;" vertex="1" parent="1">
          <mxGeometry x="110" y="50" width="630" height="560" as="geometry" />
        </mxCell>
        <mxCell id="nwMQMh3BIlK8uSWyeDDc-2" value="Player&lt;br&gt;" style="shape=umlActor;verticalLabelPosition=bottom;verticalAlign=top;html=1;" vertex="1" parent="1">
          <mxGeometry x="20" y="250" width="60" height="90" as="geometry" />
        </mxCell>
        <mxCell id="nwMQMh3BIlK8uSWyeDDc-4" value="Start Game" style="ellipse;whiteSpace=wrap;html=1;" vertex="1" parent="1">
          <mxGeometry x="190" y="130" width="130" height="50" as="geometry" />
        </mxCell>
        <mxCell id="nwMQMh3BIlK8uSWyeDDc-5" value="" style="endArrow=none;html=1;rounded=0;entryX=0;entryY=0.5;entryDx=0;entryDy=0;" edge="1" parent="1" target="nwMQMh3BIlK8uSWyeDDc-4">
          <mxGeometry width="50" height="50" relative="1" as="geometry">
            <mxPoint x="60" y="280" as="sourcePoint" />
            <mxPoint x="210" y="260" as="targetPoint" />
          </mxGeometry>
        </mxCell>
        <mxCell id="nwMQMh3BIlK8uSWyeDDc-6" value="Navigate Obsticals" style="ellipse;whiteSpace=wrap;html=1;" vertex="1" parent="1">
          <mxGeometry x="295" y="230" width="130" height="50" as="geometry" />
        </mxCell>
        <mxCell id="nwMQMh3BIlK8uSWyeDDc-7" value="Finish Game" style="ellipse;whiteSpace=wrap;html=1;" vertex="1" parent="1">
          <mxGeometry x="470" y="140" width="130" height="50" as="geometry" />
        </mxCell>
        <mxCell id="nwMQMh3BIlK8uSWyeDDc-8" value="Quit Game" style="ellipse;whiteSpace=wrap;html=1;" vertex="1" parent="1">
          <mxGeometry x="470" y="260" width="130" height="50" as="geometry" />
        </mxCell>
        <mxCell id="nwMQMh3BIlK8uSWyeDDc-9" value="Restart Game" style="ellipse;whiteSpace=wrap;html=1;" vertex="1" parent="1">
          <mxGeometry x="250" y="340" width="130" height="50" as="geometry" />
        </mxCell>
      </root>
    </mxGraphModel>
  </diagram>
</mxfile>
